<svg width="180" height="180" viewBox="0 0 180 180" fill="none" xmlns="http://www.w3.org/2000/svg">
<circle cx="90" cy="90" r="90" fill="#F928E4" fill-opacity="0.1"/>
<path d="M125 41L114.782 131.924C114.349 133.994 113.228 135.856 111.602 137.207C109.976 138.558 107.94 139.319 105.826 139.365H74.5011C72.2126 139.356 70.0064 138.511 68.2971 136.989C66.5877 135.468 65.4929 133.374 65.2185 131.102V130.022L55 41" stroke="white" stroke-width="7" stroke-miterlimit="10" stroke-linecap="round"/>
<path d="M89.9998 90.1749C96.9334 90.1749 102.554 84.5541 102.554 77.6205C102.554 70.687 96.9334 65.0662 89.9998 65.0662C83.0663 65.0662 77.4455 70.687 77.4455 77.6205C77.4455 84.5541 83.0663 90.1749 89.9998 90.1749Z" stroke="white" stroke-width="7" stroke-miterlimit="10"/>
</svg>
